<?xml version="1.0" encoding="UTF-8" standalone="no"?>
<svg
   xmlns:dc="http://purl.org/dc/elements/1.1/"
   xmlns:cc="http://creativecommons.org/ns#"
   xmlns:rdf="http://www.w3.org/1999/02/22-rdf-syntax-ns#"
   xmlns:svg="http://www.w3.org/2000/svg"
   xmlns="http://www.w3.org/2000/svg"
   xmlns:sodipodi="http://sodipodi.sourceforge.net/DTD/sodipodi-0.dtd"
   xmlns:inkscape="http://www.inkscape.org/namespaces/inkscape"
   version="1.0"
   width="195"
   height="86"
   preserveAspectRatio="xMidYMid meet"
   style=""
   id="svg10"
   sodipodi:docname="antiship.svg"
   inkscape:version="0.92.2 5c3e80d, 2017-08-06">
  <defs
     id="defs14" />
  <sodipodi:namedview
     pagecolor="#ffffff"
     bordercolor="#666666"
     borderopacity="1"
     objecttolerance="10"
     gridtolerance="10"
     guidetolerance="10"
     inkscape:pageopacity="0"
     inkscape:pageshadow="2"
     inkscape:window-width="1321"
     inkscape:window-height="785"
     id="namedview12"
     showgrid="false"
     inkscape:zoom="1.6615385"
     inkscape:cx="97.5"
     inkscape:cy="43"
     inkscape:window-x="0"
     inkscape:window-y="0"
     inkscape:window-maximized="0"
     inkscape:current-layer="svg10" />
  <rect
     id="backgroundrect"
     width="100%"
     height="100%"
     x="0"
     y="0"
     fill="none"
     stroke="none"
     class=""
     style="" />
  <metadata
     id="metadata3">
Created by potrace 1.15, written by Peter Selinger 2001-2017
<rdf:RDF>
  <cc:Work
     rdf:about="">
    <dc:format>image/svg+xml</dc:format>
    <dc:type
       rdf:resource="http://purl.org/dc/dcmitype/StillImage" />
    <dc:title></dc:title>
  </cc:Work>
</rdf:RDF>
</metadata>
  <g
     class="currentLayer"
     id="g8"
     transform="rotate(-180,97.38246,42.999975)"
     style="fill:#000000">
    <title
       id="title5">Layer 1</title>
    <path
       d="m 40.864915,12.499975 v 12.5 h -4.4 -4.5 l -0.3,4.7 c -0.3,4.6 -0.4,4.8 -3.5,5.1 l -3.3,0.3 v -10.6 -10.6 l -4.700001,0.3 -4.8,0.3 -0.3,19.7 -0.2,19.700001 -7.2999997,0.3 -7.20000014,0.3 -0.30000001,5.8 c -0.50000001,8.7 1.90000005,15.7 6.80000015,20.1 2.3,2 5.1999997,4.1 6.5999997,4.6 1.5,0.6 33.900001,1 81.900002,1 h 79.300004 l 10.1,-15.8 10,-15.7 -70,-0.3 -70.000005,-0.2 0.3,-8.800001 c 0.3,-8.2 0.4,-8.7 2.6,-9 2,-0.3 2.2,-0.9 2.2,-5.8 v -5.4 h -6 -6 v -12.5 V -2.5242567e-5 h -3.5 -3.5 z"
       id="svg_2"
       class=""
       inkscape:connector-curvature="0"
       style="fill:#FB8C00" />
  </g>
</svg>
